<svg width="36" height="36" viewBox="0 0 36 36" fill="none" xmlns="http://www.w3.org/2000/svg">
<path d="M20.25 25.3125H25.3125M25.3125 25.3125H30.375M25.3125 25.3125V20.25M25.3125 25.3125V30.375M9 15.75H12.375C13.2701 15.75 14.1285 15.3944 14.7615 14.7615C15.3944 14.1285 15.75 13.2701 15.75 12.375V9C15.75 8.10489 15.3944 7.24645 14.7615 6.61351C14.1285 5.98058 13.2701 5.625 12.375 5.625H9C8.10489 5.625 7.24645 5.98058 6.61351 6.61351C5.98058 7.24645 5.625 8.10489 5.625 9V12.375C5.625 13.2701 5.98058 14.1285 6.61351 14.7615C7.24645 15.3944 8.10489 15.75 9 15.75ZM9 30.375H12.375C13.2701 30.375 14.1285 30.0194 14.7615 29.3865C15.3944 28.7535 15.75 27.8951 15.75 27V23.625C15.75 22.7299 15.3944 21.8715 14.7615 21.2385C14.1285 20.6056 13.2701 20.25 12.375 20.25H9C8.10489 20.25 7.24645 20.6056 6.61351 21.2385C5.98058 21.8715 5.625 22.7299 5.625 23.625V27C5.625 27.8951 5.98058 28.7535 6.61351 29.3865C7.24645 30.0194 8.10489 30.375 9 30.375ZM23.625 15.75H27C27.8951 15.75 28.7535 15.3944 29.3865 14.7615C30.0194 14.1285 30.375 13.2701 30.375 12.375V9C30.375 8.10489 30.0194 7.24645 29.3865 6.61351C28.7535 5.98058 27.8951 5.625 27 5.625H23.625C22.7299 5.625 21.8715 5.98058 21.2385 6.61351C20.6056 7.24645 20.25 8.10489 20.25 9V12.375C20.25 13.2701 20.6056 14.1285 21.2385 14.7615C21.8715 15.3944 22.7299 15.75 23.625 15.75Z" stroke="white" stroke-width="1.5" stroke-linecap="round" stroke-linejoin="round"/>
</svg>
