<svg width="36" height="36" viewBox="0 0 36 36" fill="none" xmlns="http://www.w3.org/2000/svg">
<path d="M22.75 14V8.375C22.75 7.47989 22.3944 6.62145 21.7615 5.98851C21.1285 5.35558 20.2701 5 19.375 5H10.375C9.47989 5 8.62145 5.35558 7.98851 5.98851C7.35558 6.62145 7 7.47989 7 8.375V28.625C7 29.5201 7.35558 30.3785 7.98851 31.0115C8.62145 31.6444 9.47989 32 10.375 32H19.375C20.2701 32 21.1285 31.6444 21.7615 31.0115C22.3944 30.3785 22.75 29.5201 22.75 28.625V23M17.125 14L12.625 18.5M12.625 18.5L17.125 23M12.625 18.5H31.75" stroke="white" stroke-width="1.5" stroke-linecap="round" stroke-linejoin="round"/>
</svg>
