<svg width="150" height="32" viewBox="0 0 150 32" fill="none" xmlns="http://www.w3.org/2000/svg">
<path d="M35 1.40278H39.3861L42.2311 23.2736H42.3101L45.1552 1.40278H49.1461L44.9576 29.5972H39.1885L35 1.40278Z" fill="white"/>
<path d="M51.2339 1.40278H55.5804V29.5972H51.2339V1.40278Z" fill="white"/>
<path d="M58.8357 1.40278H64.2887L68.5167 18.2792H68.5957V1.40278H72.4681V29.5972H68.003L62.7872 9.01528H62.7081V29.5972H58.8357V1.40278Z" fill="white"/>
<path d="M79.6897 17.5944L74.4343 1.40278H79.0574L82.021 11.7542H82.1L85.0636 1.40278H89.2916L84.0362 17.5944V29.5972H79.6897V17.5944Z" fill="white"/>
<path d="M91.2497 1.40278H95.5963V25.5694H102.748V29.5972H91.2497V1.40278Z" fill="white"/>
<path d="M104.833 1.40278H111.392C113.631 1.40278 115.265 1.93981 116.292 3.01389C117.319 4.06111 117.833 5.68565 117.833 7.8875V9.01528C117.833 10.4653 117.596 11.6468 117.122 12.5597C116.674 13.4727 115.976 14.1306 115.027 14.5333V14.6139C117.188 15.3657 118.268 17.3259 118.268 20.4944V22.9111C118.268 25.0861 117.701 26.7509 116.568 27.9056C115.462 29.0333 113.829 29.5972 111.669 29.5972H104.833V1.40278ZM110.878 12.8819C111.748 12.8819 112.393 12.6537 112.815 12.1972C113.262 11.7407 113.486 10.9755 113.486 9.90139V8.33056C113.486 7.31019 113.302 6.57176 112.933 6.11528C112.591 5.6588 112.038 5.43056 111.274 5.43056H109.179V12.8819H110.878ZM111.669 25.5694C112.433 25.5694 112.999 25.3681 113.368 24.9653C113.737 24.5356 113.921 23.8106 113.921 22.7903V20.3333C113.921 19.0444 113.697 18.1583 113.249 17.675C112.828 17.1648 112.117 16.9097 111.116 16.9097H109.179V25.5694H111.669Z" fill="white"/>
<path d="M127.091 30C124.957 30 123.324 29.3824 122.191 28.1472C121.059 26.912 120.492 25.1667 120.492 22.9111V8.08889C120.492 5.83333 121.059 4.08796 122.191 2.85278C123.324 1.61759 124.957 1 127.091 1C129.225 1 130.858 1.61759 131.991 2.85278C133.124 4.08796 133.69 5.83333 133.69 8.08889V22.9111C133.69 25.1667 133.124 26.912 131.991 28.1472C130.858 29.3824 129.225 30 127.091 30ZM127.091 25.9722C128.593 25.9722 129.343 25.0458 129.343 23.1931V7.80695C129.343 5.95417 128.593 5.02778 127.091 5.02778C125.589 5.02778 124.839 5.95417 124.839 7.80695V23.1931C124.839 25.0458 125.589 25.9722 127.091 25.9722Z" fill="white"/>
<path d="M139.845 15.1778L135.064 1.40278H139.647L142.571 10.5056H142.65L145.653 1.40278H149.763L144.982 15.1778L150 29.5972H145.416L142.255 19.7694H142.176L138.936 29.5972H134.827L139.845 15.1778Z" fill="white"/>
<rect width="32" height="32" fill="white"/>
<circle cx="16" cy="16" r="15" fill="#292827"/>
<circle cx="16" cy="16" r="6" fill="#E75D30"/>
</svg>
